# xmcd
#
# Track frame offsets:
# 150
# 15679
# 28570
# 52927
# 66286
# 83646
# 105172
# 118911
# 145490
# 166200
# 181953
# 204849
# 228410
#
# Disc length: 3117 seconds
#
#
# Revision: 0
# Processed by: cddbd v1.5.2PL0 Copyright (c) Steve Scherf et al.
# Submitted via: FreeRIP 2.60 
#
DISCID=a10c2b0d
DTITLE=The Messengers - Songs for a Stranger
DYEAR=2002
DGENRE=
TTITLE0=A Thousand Degrees of Cold
TTITLE1=Rita Went Running
TTITLE2=What's Left of 66
TTITLE3=Wouldn't You, Too
TTITLE4=When We Were Lovers
TTITLE5=Navajo Girl
TTITLE6=Blue, I'll Stay
TTITLE7=Shantytown (La, La, La)
TTITLE8=My Illusion
TTITLE9=Kitty
TTITLE10=Rainbows' End
TTITLE11=Walking On The Sea (The Lilac Song)
TTITLE12=Shantytown(Reprise)
EXTD=MGMP 031246\n
EXTT0=
EXTT1=
EXTT2=
EXTT3=
EXTT4=
EXTT5=
EXTT6=
EXTT7=
EXTT8=
EXTT9=
EXTT10=
EXTT11=
EXTT12=
PLAYORDER=
